<?xml version="1.0" encoding="UTF-8" standalone="no"?>
<!DOCTYPE svg PUBLIC "-//W3C//DTD SVG 1.1//EN" "http://www.w3.org/Graphics/SVG/1.1/DTD/svg11.dtd">
<svg width="100%" height="100%" viewBox="0 0 39 40" version="1.1" xmlns="http://www.w3.org/2000/svg" xmlns:xlink="http://www.w3.org/1999/xlink" xml:space="preserve" xmlns:serif="http://www.serif.com/" style="fill-rule:evenodd;clip-rule:evenodd;">
    <path d="M38,19.777C38,29.988 29.71,38.277 19.5,38.277C9.29,38.277 1,29.988 1,19.777C1,9.567 9.29,1.277 19.5,1.277C29.71,1.277 38,9.567 38,19.777Z" style="fill:none;stroke:rgb(251,122,0);stroke-width:2px;"/>
    <path d="M18,16.105L13.343,20.762C12.953,21.153 12.319,21.153 11.929,20.762C11.539,20.372 11.539,19.739 11.929,19.348L18.293,12.984C18.683,12.594 19.317,12.594 19.707,12.984L26.071,19.348C26.461,19.739 26.461,20.372 26.071,20.762C25.68,21.153 25.047,21.153 24.657,20.762L20,16.105L20,27.277C20,27.83 19.552,28.277 19,28.277C18.448,28.277 18,27.83 18,27.277L18,16.105Z" style="fill:rgb(251,122,0);fill-rule:nonzero;"/>
</svg>
