<?xml version="1.0" encoding="UTF-8" standalone="no"?>
<!DOCTYPE svg PUBLIC "-//W3C//DTD SVG 1.1//EN" "http://www.w3.org/Graphics/SVG/1.1/DTD/svg11.dtd">
<svg width="100%" height="100%" viewBox="0 0 500 120" version="1.1" xmlns="http://www.w3.org/2000/svg" xmlns:xlink="http://www.w3.org/1999/xlink" xml:space="preserve" xmlns:serif="http://www.serif.com/" style="fill-rule:evenodd;clip-rule:evenodd;stroke-linejoin:round;stroke-miterlimit:2;">
    <g transform="matrix(1.50622,0,0,1.50622,-38.8672,-20.0997)">
        <path d="M67.873,46.083C66.796,44.1 65.238,42.599 63.199,41.579C61.216,40.502 58.864,39.964 56.145,39.964C51.442,39.964 47.674,41.522 44.842,44.638C42.009,47.698 40.592,51.806 40.592,56.961C40.592,62.457 42.065,66.763 45.012,69.879C48.014,72.939 52.122,74.469 57.335,74.469C60.904,74.469 63.907,73.562 66.343,71.749C68.836,69.936 70.649,67.33 71.782,63.93L53.34,63.93L53.34,53.222L84.955,53.222L84.955,66.735C83.879,70.361 82.037,73.732 79.431,76.848C76.882,79.964 73.624,82.486 69.658,84.412C65.692,86.338 61.216,87.302 56.23,87.302C50.337,87.302 45.068,86.027 40.422,83.477C35.833,80.871 32.235,77.273 29.629,72.684C27.079,68.095 25.805,62.854 25.805,56.961C25.805,51.069 27.079,45.828 29.629,41.239C32.235,36.593 35.833,32.995 40.422,30.446C45.012,27.839 50.252,26.536 56.145,26.536C63.284,26.536 69.289,28.264 74.162,31.72C79.091,35.176 82.349,39.964 83.935,46.083L67.873,46.083Z" style="fill:white;fill-rule:nonzero;"/>
        <path d="M107.562,47.358C109.261,44.752 111.386,42.712 113.936,41.239C116.485,39.709 119.318,38.944 122.434,38.944L122.434,54.327L118.44,54.327C114.814,54.327 112.094,55.12 110.281,56.706C108.468,58.236 107.562,60.956 107.562,64.865L107.562,86.877L93.029,86.877L93.029,39.454L107.562,39.454L107.562,47.358Z" style="fill:white;fill-rule:nonzero;"/>
        <rect x="129.403" y="39.454" width="14.533" height="47.423" style="fill:white;fill-rule:nonzero;"/>
        <path d="M173.766,87.557C169.63,87.557 165.948,86.848 162.718,85.432C159.489,84.015 156.939,82.089 155.069,79.653C153.2,77.16 152.151,74.384 151.925,71.324L166.287,71.324C166.457,72.967 167.222,74.299 168.582,75.318C169.942,76.338 171.613,76.848 173.596,76.848C175.409,76.848 176.798,76.508 177.761,75.828C178.781,75.092 179.29,74.157 179.29,73.024C179.29,71.664 178.582,70.673 177.166,70.049C175.749,69.369 173.455,68.633 170.282,67.84C166.882,67.046 164.05,66.225 161.783,65.375C159.517,64.469 157.562,63.08 155.919,61.211C154.276,59.284 153.455,56.706 153.455,53.477C153.455,50.757 154.191,48.293 155.664,46.083C157.194,43.817 159.404,42.032 162.293,40.729C165.239,39.426 168.724,38.774 172.746,38.774C178.696,38.774 183.37,40.247 186.769,43.194C190.225,46.14 192.208,50.049 192.718,54.922L179.29,54.922C179.064,53.279 178.327,51.975 177.081,51.012C175.891,50.049 174.305,49.568 172.322,49.568C170.622,49.568 169.319,49.907 168.412,50.587C167.506,51.211 167.052,52.089 167.052,53.222C167.052,54.582 167.761,55.602 169.177,56.281C170.65,56.961 172.916,57.641 175.976,58.321C179.489,59.228 182.35,60.134 184.56,61.041C186.769,61.891 188.696,63.307 190.339,65.29C192.038,67.216 192.917,69.823 192.973,73.109C192.973,75.885 192.18,78.378 190.594,80.588C189.064,82.741 186.826,84.44 183.88,85.687C180.99,86.933 177.619,87.557 173.766,87.557Z" style="fill:white;fill-rule:nonzero;"/>
        <path d="M199.007,63.165C199.007,58.236 199.999,53.93 201.982,50.247C204.022,46.565 206.826,43.732 210.396,41.749C214.022,39.766 218.158,38.774 222.804,38.774C228.753,38.774 233.71,40.332 237.676,43.448C241.699,46.565 244.334,50.956 245.58,56.621L230.112,56.621C228.809,52.995 226.288,51.182 222.549,51.182C219.886,51.182 217.761,52.23 216.175,54.327C214.588,56.366 213.795,59.313 213.795,63.165C213.795,67.018 214.588,69.993 216.175,72.089C217.761,74.129 219.886,75.149 222.549,75.149C226.288,75.149 228.809,73.335 230.112,69.709L245.58,69.709C244.334,75.262 241.699,79.624 237.676,82.797C233.654,85.97 228.696,87.557 222.804,87.557C218.158,87.557 214.022,86.565 210.396,84.582C206.826,82.599 204.022,79.766 201.982,76.083C199.999,72.401 199.007,68.095 199.007,63.165Z" style="fill:white;fill-rule:nonzero;"/>
        <path d="M282.464,38.944C287.903,38.944 292.266,40.757 295.552,44.383C298.838,47.953 300.481,52.882 300.481,59.171L300.481,86.877L286.034,86.877L286.034,61.126C286.034,57.953 285.212,55.488 283.569,53.732C281.926,51.975 279.716,51.097 276.94,51.097C274.164,51.097 271.954,51.975 270.311,53.732C268.668,55.488 267.847,57.953 267.847,61.126L267.847,86.877L253.314,86.877L253.314,23.987L267.847,23.987L267.847,45.828C269.32,43.732 271.331,42.06 273.881,40.814C276.43,39.567 279.291,38.944 282.464,38.944Z" style="fill:white;fill-rule:nonzero;"/>
        <path d="M307.705,63.08C307.705,58.208 308.612,53.93 310.425,50.247C312.295,46.565 314.816,43.732 317.989,41.749C321.161,39.766 324.703,38.774 328.612,38.774C331.955,38.774 334.873,39.454 337.366,40.814C339.915,42.174 341.87,43.958 343.23,46.168L343.23,39.454L357.762,39.454L357.762,86.877L343.23,86.877L343.23,80.163C341.813,82.372 339.83,84.157 337.281,85.517C334.788,86.877 331.87,87.557 328.527,87.557C324.674,87.557 321.161,86.565 317.989,84.582C314.816,82.542 312.295,79.681 310.425,75.998C308.612,72.259 307.705,67.953 307.705,63.08ZM343.23,63.165C343.23,59.539 342.21,56.678 340.17,54.582C338.187,52.485 335.751,51.437 332.861,51.437C329.972,51.437 327.507,52.485 325.467,54.582C323.484,56.621 322.493,59.454 322.493,63.08C322.493,66.707 323.484,69.596 325.467,71.749C327.507,73.845 329.972,74.894 332.861,74.894C335.751,74.894 338.187,73.845 340.17,71.749C342.21,69.653 343.23,66.791 343.23,63.165Z" style="fill:rgb(249,120,4);fill-rule:nonzero;"/>
        <g transform="matrix(0.956248,0,0,0.9342,6.04725,1.23719)">
            <rect x="129" y="18.802" width="15.198" height="15.198" style="fill:rgb(254,71,73);"/>
        </g>
    </g>
</svg>
